<svg width="208" height="71.8" version="1.0" viewBox="5.5 -3.5 208 71.8" xml:space="preserve" xmlns="http://www.w3.org/2000/svg"><path d="M41.3.4c8.95 0 16.6 3.12 22.9 9.37 3.01 3.01 5.3 6.45 6.86 10.3 1.56 3.87 2.34 7.97 2.34 12.3 0 4.38-.773 8.49-2.31 12.3a28.736 28.736 0 0 1-6.83 10.1c-3.12 3.08-6.67 5.45-10.6 7.09-3.96 1.64-8.06 2.46-12.3 2.46s-8.28-.808-12.1-2.43c-3.87-1.62-7.33-3.96-10.4-7.03s-5.4-6.52-7-10.4-2.4-7.9-2.4-12.2c0-4.23.809-8.3 2.43-12.2s3.97-7.4 7.06-10.5c6.1-6.21 13.6-9.31 22.5-9.31zm.116 5.77c-7.31 0-13.5 2.55-18.5 7.66-2.52 2.55-4.45 5.42-5.8 8.6-1.35 3.18-2.03 6.5-2.03 9.97 0 3.43.675 6.73 2.03 9.91 1.35 3.18 3.28 6.02 5.8 8.52 2.51 2.5 5.35 4.4 8.52 5.72 3.16 1.31 6.48 1.97 9.94 1.97 3.43 0 6.75-.665 9.97-2 3.22-1.34 6.12-3.26 8.71-5.77 4.99-4.88 7.48-11 7.48-18.3 0-3.54-.648-6.9-1.94-10.1-1.29-3.16-3.18-5.98-5.65-8.46-5.15-5.14-11.3-7.72-18.6-7.72zm-.401 20.9-4.29 2.23c-.458-.951-1.02-1.62-1.68-2-.667-.38-1.29-.571-1.86-.571-2.86 0-4.29 1.88-4.29 5.66 0 1.71.362 3.08 1.08 4.11.724 1.03 1.79 1.54 3.2 1.54 1.87 0 3.18-.915 3.94-2.74l3.94 2c-.838 1.56-2 2.79-3.49 3.69-1.48.896-3.12 1.34-4.91 1.34-2.86 0-5.16-.875-6.92-2.63-1.75-1.75-2.63-4.19-2.63-7.31 0-3.05.886-5.47 2.66-7.26 1.77-1.79 4.01-2.69 6.72-2.69 3.96-.002 6.8 1.54 8.52 4.63zm18.5 0-4.23 2.23c-.457-.951-1.02-1.62-1.69-2-.668-.38-1.31-.571-1.91-.571-2.86 0-4.29 1.88-4.29 5.66 0 1.71.363 3.08 1.09 4.11s1.79 1.54 3.2 1.54c1.86 0 3.18-.915 3.94-2.74l4 2c-.875 1.56-2.06 2.79-3.54 3.69a9.23 9.23 0 0 1-4.86 1.34c-2.9 0-5.21-.875-6.94-2.63-1.74-1.75-2.6-4.19-2.6-7.31 0-3.05.885-5.47 2.66-7.26 1.77-1.79 4.01-2.69 6.71-2.69 3.96-.002 6.78 1.54 8.46 4.63zM109.2.4c8.99 0 16.6 3.08 22.7 9.26 6.21 6.21 9.32 13.8 9.32 22.7 0 8.99-3.05 16.5-9.14 22.5-6.48 6.36-14.1 9.54-22.9 9.54-8.65 0-16.2-3.14-22.5-9.43-6.28-6.29-9.43-13.8-9.43-22.6 0-8.76 3.14-16.3 9.43-22.7 6.17-6.17 13.7-9.26 22.5-9.26zm.114 5.77c-7.28 0-13.4 2.55-18.5 7.66-5.22 5.33-7.83 11.5-7.83 18.6 0 7.09 2.59 13.2 7.77 18.4 5.18 5.18 11.4 7.77 18.5 7.77 7.12 0 13.3-2.61 18.6-7.83 5.03-4.84 7.54-11 7.54-18.3 0-7.28-2.55-13.5-7.66-18.6-5.1-5.1-11.3-7.66-18.5-7.66zm8.57 18.3v13.1h-3.66v15.5h-9.94v-15.5h-3.66v-13.1c0-.572.2-1.06.599-1.46.401-.399.887-.6 1.46-.6h13.1c.533 0 1.01.2 1.43.6.417.4.628.886.628 1.46zm-13.1-8.23c0-3.01 1.48-4.51 4.46-4.51s4.46 1.5 4.46 4.51c0 2.97-1.49 4.46-4.46 4.46s-4.46-1.49-4.46-4.46zM177.4.4c8.95 0 16.5 3.1 22.7 9.32 6.21 6.17 9.32 13.7 9.32 22.7 0 8.95-3.05 16.5-9.14 22.5-6.44 6.32-14.1 9.49-22.9 9.49-8.65 0-16.2-3.14-22.5-9.43-6.28-6.28-9.43-13.8-9.43-22.6 0-8.72 3.14-16.3 9.43-22.7 6.21-6.21 13.7-9.32 22.5-9.32zm.114 5.77c-7.28 0-13.4 2.57-18.5 7.72-5.22 5.3-7.83 11.5-7.83 18.5 0 7.12 2.59 13.3 7.77 18.4 5.18 5.18 11.4 7.77 18.5 7.77 7.12 0 13.3-2.61 18.6-7.83 5.03-4.88 7.54-11 7.54-18.3 0-7.31-2.55-13.5-7.66-18.5-5.07-5.14-11.2-7.72-18.5-7.72zm-14.3 21.7c.609-3.92 2.19-6.96 4.74-9.11 2.55-2.15 5.66-3.23 9.31-3.23 5.03 0 9.03 1.62 12 4.86 2.97 3.24 4.46 7.39 4.46 12.5 0 4.92-1.54 9-4.63 12.3-3.09 3.26-7.09 4.89-12 4.89-3.62 0-6.74-1.08-9.37-3.26-2.63-2.17-4.21-5.26-4.74-9.26h8.06c.19 3.89 2.53 5.83 7.03 5.83 2.25 0 4.06-.972 5.43-2.91 1.37-1.94 2.06-4.53 2.06-7.77 0-3.39-.629-5.97-1.88-7.74-1.26-1.77-3.07-2.66-5.43-2.66-4.27 0-6.67 1.88-7.2 5.66h2.34l-6.34 6.34-6.34-6.34z"/></svg>