<svg width="61.565" height="53.451" version="1.1" xmlns="http://www.w3.org/2000/svg"><defs><style>.cls-1{fill:#bf873e;fill-rule:evenodd}</style></defs><path d="M5.182 52.701a4.46 4.46 0 0 1-3.84-2.17 4.25 4.25 0 0 1 0-4.33l25.6-43.3a4.48 4.48 0 0 1 7.68 0l25.6 43.3a4.25 4.25 0 0 1 0 4.33 4.45 4.45 0 0 1-3.84 2.17z" fill="#bf873e" style="stroke:#fff;stroke-width:2;stroke-opacity:1"/><path d="M31.182 48.701a4 4 0 1 0-4-4 4 4 0 0 0 4 4zm0-36a4 4 0 0 0-4 4v16a4 4 0 0 0 8 0v-16a4 4 0 0 0-4-4z" fill="#fff"/></svg>