<svg width="61.554" height="61.554" version="1.1" xmlns="http://www.w3.org/2000/svg"><defs><style>.cls-1{fill:#699f4c;fill-rule:evenodd}</style></defs><path d="M30.804 60.804a30 30 0 1 1 30-30 30 30 0 0 1-30 30z" fill="#699f4c" style="stroke:#fff;stroke-width:2"/><path d="M13.804 37.804a3.48 3.48 0 0 1 0-4.9l1.77-1.76a3.18 3.18 0 0 1 4.57.05l3.12 3.24a1.59 1.59 0 0 0 2.31 0l15.9-16.4a3.19 3.19 0 0 1 4.6-.026l1.72 1.73a3.48 3.48 0 0 1 0 4.85l-21.1 21.5a3.18 3.18 0 0 1-4.55.03z" fill="#fff"/></svg>