<svg width="61.554" height="61.554" version="1.1" id="svg9" xmlns="http://www.w3.org/2000/svg"><defs id="defs4"><style id="style2">.cls-1{fill:#9f4c4c;fill-rule:evenodd}</style></defs><path id="uncheck" d="M30.804 60.804a30 30 0 1 1 30-30 30 30 0 0 1-30 30z" fill="#9f4c4c" style="stroke:#fff;stroke-width:2"/><path d="M45.804 40.804a3.41 3.41 0 0 1 0 4.82l-.221.22a3.42 3.42 0 0 1-4.83 0l-8.76-8.76a1.71 1.71 0 0 0-2.42 0l-8.74 8.75a3.42 3.42 0 0 1-4.84 0l-.194-.193a3.41 3.41 0 0 1 .017-4.84l8.83-8.74a1.7 1.7 0 0 0 0-2.43l-8.83-8.72a3.41 3.41 0 0 1-.018-4.84l.193-.193a3.41 3.41 0 0 1 2.42-1c.944 0 3.26 1.84 3.87 2.46l7.29 7.29a1.71 1.71 0 0 0 2.42 0l8.76-8.75a3.42 3.42 0 0 1 4.83 0l.222.229a3.41 3.41 0 0 1 0 4.82l-8.73 8.74a1.7 1.7 0 0 0 0 2.41z" fill="#fff" id="path7"/></svg>